<svg width="32" height="31" viewBox="0 0 32 31" fill="none" xmlns="http://www.w3.org/2000/svg">
    <g clip-path="url(#clip0_483_3505)">
        <path d="M16 0C7.64476 0 0.870972 6.77379 0.870972 15.129C0.870972 23.4843 7.64476 30.2581 16 30.2581C24.3552 30.2581 31.129 23.4843 31.129 15.129C31.129 6.77379 24.3552 0 16 0Z" fill="black"/>
        <path d="M17.6551 13.7599L24.1317 6.23145H22.5969L16.9733 12.7683L12.4818 6.23145H7.30133L14.0934 16.1163L7.30133 24.0111H8.83616L14.7748 17.1079L19.5182 24.0111H24.6987L17.6547 13.7599H17.6551ZM9.38916 7.38685H11.7466L22.5976 22.9083H20.2402L9.38916 7.38685Z" fill="white"/>
    </g>
    <defs>
        <linearGradient id="paint0_linear_483_3505" x1="0.847333" y1="17.4932" x2="31.0975" y2="17.4932" gradientUnits="userSpaceOnUse">
            <stop stop-color="black"/>
            <stop offset="0.9999" stop-color="black"/>
            <stop offset="1" stop-color="black"/>
        </linearGradient>
        <clipPath id="clip0_483_3505">
            <rect width="30.2581" height="30.2581" fill="white" transform="translate(0.870972)"/>
        </clipPath>
    </defs>
</svg>
